<svg width="24" height="24" viewBox="0 0 24 24" fill="none" xmlns="http://www.w3.org/2000/svg">
<g clip-path="url(#clip0_310_867)">
<path d="M18.1977 0.333008H5.80188C2.78157 0.333008 0.33313 2.78145 0.33313 5.80176V18.1976C0.33313 21.2179 2.78157 23.6663 5.80188 23.6663H18.1977C21.218 23.6663 23.6665 21.2179 23.6665 18.1976V5.80176C23.6665 2.78145 21.218 0.333008 18.1977 0.333008Z" fill="url(#paint0_radial_310_867)"/>
<path d="M18.1977 0.333008H5.80188C2.78157 0.333008 0.33313 2.78145 0.33313 5.80176V18.1976C0.33313 21.2179 2.78157 23.6663 5.80188 23.6663H18.1977C21.218 23.6663 23.6665 21.2179 23.6665 18.1976V5.80176C23.6665 2.78145 21.218 0.333008 18.1977 0.333008Z" fill="url(#paint1_radial_310_867)"/>
<path d="M12.0011 2.88477C9.52581 2.88477 9.21509 2.89561 8.24293 2.93982C7.27259 2.9843 6.61023 3.13788 6.03073 3.36328C5.43117 3.59607 4.92267 3.90751 4.41608 4.41428C3.90904 4.92096 3.59759 5.42947 3.36408 6.02875C3.13803 6.60844 2.98427 7.27107 2.94061 8.24095C2.89714 9.2132 2.88574 9.52401 2.88574 11.9994C2.88574 14.4749 2.89668 14.7846 2.94079 15.7567C2.98546 16.7271 3.13904 17.3894 3.36426 17.9689C3.59723 18.5685 3.90867 19.077 4.41544 19.5836C4.92194 20.0906 5.43044 20.4028 6.02954 20.6356C6.6095 20.861 7.27195 21.0146 8.24211 21.0591C9.21436 21.1033 9.5248 21.1141 12.0001 21.1141C14.4757 21.1141 14.7854 21.1033 15.7575 21.0591C16.7279 21.0146 17.391 20.861 17.9709 20.6356C18.5702 20.4028 19.078 20.0906 19.5844 19.5836C20.0914 19.077 20.4028 18.5685 20.6364 17.9692C20.8604 17.3894 21.0143 16.7269 21.0599 15.7569C21.1035 14.7848 21.1149 14.4749 21.1149 11.9994C21.1149 9.52401 21.1035 9.21339 21.0599 8.24113C21.0143 7.27079 20.8604 6.60853 20.6364 6.02902C20.4028 5.42947 20.0914 4.92096 19.5844 4.41428C19.0774 3.90733 18.5704 3.59589 17.9704 3.36337C17.3893 3.13788 16.7266 2.98421 15.7563 2.93982C14.784 2.89561 14.4745 2.88477 11.9983 2.88477H12.0011ZM11.1835 4.5273C11.4262 4.52694 11.697 4.5273 12.0011 4.5273C14.4348 4.5273 14.7232 4.53605 15.6843 4.57971C16.5729 4.62036 17.0553 4.76884 17.3766 4.89362C17.8019 5.05878 18.1052 5.25629 18.424 5.57539C18.743 5.8944 18.9404 6.19819 19.1061 6.62357C19.2308 6.9444 19.3795 7.42674 19.42 8.31542C19.4636 9.27628 19.4731 9.56484 19.4731 11.9973C19.4731 14.4298 19.4636 14.7185 19.42 15.6793C19.3793 16.5679 19.2308 17.0503 19.1061 17.3712C18.9409 17.7966 18.743 18.0995 18.424 18.4183C18.105 18.7373 17.8021 18.9347 17.3766 19.1C17.0556 19.2253 16.5729 19.3734 15.6843 19.4141C14.7234 19.4577 14.4348 19.4672 12.0011 19.4672C9.56737 19.4672 9.27889 19.4577 8.31812 19.4141C7.42945 19.373 6.94711 19.2246 6.62555 19.0998C6.20026 18.9345 5.89638 18.7371 5.57737 18.4181C5.25836 18.0991 5.06094 17.796 4.89533 17.3705C4.77055 17.0496 4.62189 16.5672 4.58142 15.6785C4.53776 14.7177 4.52901 14.4291 4.52901 11.9951C4.52901 9.56102 4.53776 9.274 4.58142 8.31314C4.62207 7.42447 4.77055 6.94212 4.89533 6.62083C5.06057 6.19546 5.25836 5.89167 5.57746 5.57266C5.89656 5.25365 6.20026 5.05613 6.62564 4.89061C6.94693 4.76529 7.42945 4.61717 8.31812 4.57634C9.15894 4.53833 9.48479 4.52694 11.1835 4.52503V4.5273ZM16.8665 6.04069C16.2627 6.04069 15.7728 6.53014 15.7728 7.13408C15.7728 7.73792 16.2627 8.22783 16.8665 8.22783C17.4704 8.22783 17.9603 7.73792 17.9603 7.13408C17.9603 6.53023 17.4704 6.04033 16.8665 6.04033V6.04069ZM12.0011 7.31865C9.41625 7.31865 7.32044 9.41445 7.32044 11.9994C7.32044 14.5844 9.41625 16.6792 12.0011 16.6792C14.5861 16.6792 16.6812 14.5844 16.6812 11.9994C16.6812 9.41455 14.5859 7.31865 12.001 7.31865H12.0011ZM12.0011 8.96118C13.679 8.96118 15.0394 10.3214 15.0394 11.9994C15.0394 13.6773 13.679 15.0377 12.0011 15.0377C10.3232 15.0377 8.96298 13.6773 8.96298 11.9994C8.96298 10.3214 10.3232 8.96118 12.0011 8.96118Z" fill="white"/>
</g>
<defs>
<radialGradient id="paint0_radial_310_867" cx="0" cy="0" r="1" gradientUnits="userSpaceOnUse" gradientTransform="translate(6.53105 25.4635) rotate(-90) scale(23.1251 21.5081)">
<stop stop-color="#FFDD55"/>
<stop offset="0.1" stop-color="#FFDD55"/>
<stop offset="0.5" stop-color="#FF543E"/>
<stop offset="1" stop-color="#C837AB"/>
</radialGradient>
<radialGradient id="paint1_radial_310_867" cx="0" cy="0" r="1" gradientUnits="userSpaceOnUse" gradientTransform="translate(-3.57529 2.01383) rotate(78.681) scale(10.337 42.6096)">
<stop stop-color="#3771C8"/>
<stop offset="0.128" stop-color="#3771C8"/>
<stop offset="1" stop-color="#6600FF" stop-opacity="0"/>
</radialGradient>
<clipPath id="clip0_310_867">
<rect width="23.3333" height="23.3333" fill="white" transform="translate(0.33313 0.333008)"/>
</clipPath>
</defs>
</svg>
