<svg width="151" height="43" viewBox="0 0 151 43" fill="none" xmlns="http://www.w3.org/2000/svg">
<rect width="151" height="42.119" fill="white"/>
<rect width="42.119" height="42.119" rx="21.0595" fill="#FA18D0"/>
<path d="M20.9362 14.2864C20.9362 15.2386 20.1643 16.0105 19.2121 16.0105H15.5178C14.5656 16.0105 13.7937 16.7825 13.7937 17.7347V29.8039C13.7937 30.7562 14.5656 31.5281 15.5178 31.5281H19.7052C20.6575 31.5281 21.4294 30.7562 21.4294 29.8039V20.1976C21.4294 19.2454 22.2013 18.4734 23.1536 18.4734H26.8478C27.8 18.4734 28.572 17.7015 28.572 16.7492V12.5618C28.572 11.6096 27.8 10.8377 26.8478 10.8377H22.6604C21.7082 10.8377 20.9362 11.6096 20.9362 12.5618V14.2864Z" fill="white"/>
<path d="M141.991 31.142L136.798 16.6884C136.772 16.5851 136.772 16.4818 136.798 16.3784C136.85 16.2751 136.927 16.2234 137.031 16.2234H137.845C138.904 16.2234 139.679 16.443 140.17 16.8822C140.686 17.3213 141.164 18.148 141.603 19.3621L144.006 26.5696L147.261 16.7272C147.416 16.3913 147.622 16.2234 147.881 16.2234H150.748C150.877 16.2234 150.955 16.2751 150.981 16.3784C151.006 16.4818 151.006 16.5851 150.981 16.6884L145.943 30.832C145.504 32.0978 145.026 33.2216 144.509 34.2032C144.019 35.2107 143.412 35.9986 142.688 36.5669C141.965 37.1353 141.048 37.4194 139.937 37.4194C139.11 37.4194 138.413 37.2386 137.845 36.8769C137.276 36.5411 136.85 36.1019 136.566 35.5594C136.282 35.0169 136.14 34.4874 136.14 33.9707C136.14 33.7899 136.178 33.622 136.256 33.467C136.333 33.312 136.45 33.2345 136.605 33.2345C136.656 33.2345 136.708 33.2474 136.76 33.2732C136.837 33.3249 136.902 33.3766 136.953 33.4282C137.651 33.9449 138.348 34.2032 139.046 34.2032C139.769 34.2032 140.337 33.9707 140.751 33.5057C141.164 33.0666 141.577 32.2786 141.991 31.142Z" fill="black"/>
<path d="M132.576 28.972C132.059 29.6695 131.401 30.212 130.6 30.5995C129.799 30.9612 128.947 31.142 128.042 31.142C126.596 31.142 125.369 30.7933 124.361 30.0958C123.38 29.3983 122.63 28.4683 122.114 27.3058C121.623 26.1433 121.378 24.8646 121.378 23.4696C121.378 22.023 121.649 20.7313 122.191 19.5946C122.734 18.4322 123.509 17.5151 124.516 16.8434C125.55 16.1718 126.751 15.8359 128.12 15.8359C129.257 15.8359 130.212 16.0426 130.987 16.4559C131.788 16.8693 132.421 17.3601 132.886 17.9284C133.093 17.3343 133.429 16.908 133.894 16.6497C134.384 16.3655 134.966 16.2234 135.637 16.2234H135.831C136.115 16.2234 136.257 16.3784 136.257 16.6884V30.367C136.257 30.6512 136.115 30.7933 135.831 30.7933H132.964C132.705 30.7933 132.576 30.6512 132.576 30.367V28.972ZM128.856 27.6545C129.347 27.6545 129.877 27.5512 130.445 27.3445C131.039 27.1121 131.543 26.6987 131.956 26.1046C132.369 25.5104 132.576 24.6321 132.576 23.4696C132.576 22.3071 132.369 21.4417 131.956 20.8734C131.543 20.2792 131.052 19.8917 130.484 19.7109C129.915 19.5042 129.386 19.4009 128.895 19.4009C128.378 19.4009 127.823 19.5171 127.229 19.7496C126.66 19.9821 126.17 20.3955 125.756 20.9896C125.369 21.5838 125.175 22.4104 125.175 23.4696C125.175 24.5804 125.382 25.4458 125.795 26.0658C126.234 26.66 126.738 27.0733 127.306 27.3058C127.875 27.5383 128.391 27.6545 128.856 27.6545Z" fill="black"/>
<path d="M109.214 29.0883V36.5669C109.214 36.8511 109.084 36.9932 108.826 36.9932H105.92C105.687 36.9932 105.571 36.8511 105.571 36.5669V16.6884C105.571 16.3784 105.687 16.2234 105.92 16.2234H106.114C106.889 16.2234 107.509 16.3913 107.974 16.7272C108.464 17.063 108.8 17.528 108.981 18.1222C109.369 17.528 109.95 17.0113 110.725 16.5722C111.5 16.133 112.443 15.9134 113.553 15.9134C115.052 15.9134 116.305 16.2493 117.312 16.9209C118.32 17.5667 119.082 18.458 119.598 19.5946C120.141 20.7313 120.412 22.0229 120.412 23.4696C120.412 24.8646 120.154 26.1433 119.637 27.3058C119.146 28.4683 118.41 29.3983 117.428 30.0958C116.447 30.7932 115.233 31.142 113.786 31.142C112.83 31.142 111.952 30.9741 111.151 30.6383C110.376 30.2766 109.73 29.7599 109.214 29.0883ZM112.972 27.6545C113.437 27.6545 113.941 27.5383 114.483 27.3058C115.052 27.0733 115.543 26.66 115.956 26.0658C116.369 25.4458 116.576 24.5804 116.576 23.4696C116.576 22.3846 116.369 21.5579 115.956 20.9896C115.568 20.3955 115.091 19.9821 114.522 19.7496C113.954 19.5171 113.411 19.4009 112.895 19.4009C112.43 19.4009 111.913 19.5042 111.345 19.7109C110.776 19.8917 110.273 20.2792 109.834 20.8734C109.42 21.4417 109.214 22.3071 109.214 23.4696C109.214 24.6062 109.42 25.4846 109.834 26.1046C110.273 26.6987 110.789 27.112 111.383 27.3445C111.978 27.5512 112.507 27.6545 112.972 27.6545Z" fill="black"/>
<path d="M104.482 27.0733C104.534 27.0475 104.586 27.0087 104.637 26.9571C104.715 26.9054 104.792 26.8796 104.87 26.8796C105.025 26.8796 105.128 26.9441 105.18 27.0733C105.257 27.1766 105.296 27.2929 105.296 27.422C105.296 27.9387 105.18 28.4941 104.947 29.0883C104.715 29.6566 104.327 30.1345 103.785 30.522C103.242 30.9095 102.493 31.1032 101.537 31.1032C100.323 31.1032 99.3546 30.7028 98.6313 29.902C97.9338 29.1012 97.585 27.8612 97.585 26.1821V9.71352C97.585 9.40353 97.7142 9.24853 97.9725 9.24853H98.1663C99.1738 9.24853 99.9487 9.50686 100.491 10.0235C101.034 10.5143 101.305 11.341 101.305 12.5035V25.8333C101.305 27.1766 101.783 27.8483 102.739 27.8483C103.126 27.8483 103.449 27.7837 103.707 27.6545C103.966 27.5254 104.224 27.3316 104.482 27.0733Z" fill="black"/>
<path d="M86.1164 24.8258C86.2455 25.8591 86.6976 26.6471 87.4726 27.1895C88.2476 27.732 89.2293 28.0033 90.4176 28.0033C91.3992 28.0033 92.213 27.9 92.8588 27.6933C93.5046 27.4866 94.1504 27.2025 94.7963 26.8408C95.0288 26.6858 95.2354 26.6083 95.4163 26.6083C95.7004 26.6083 95.8425 26.7891 95.8425 27.1508C95.8425 27.6933 95.6358 28.2745 95.2225 28.8945C94.835 29.5145 94.215 30.057 93.3625 30.522C92.5101 30.9612 91.3734 31.1807 89.9526 31.1807C88.5576 31.1807 87.2789 30.8966 86.1164 30.3283C84.9797 29.7341 84.0756 28.8687 83.4039 27.732C82.7323 26.5696 82.3964 25.1487 82.3964 23.4696C82.3964 21.9971 82.6806 20.6925 83.2489 19.5559C83.8431 18.4192 84.6697 17.528 85.7289 16.8822C86.8139 16.2363 88.0797 15.9134 89.5263 15.9134C91.0763 15.9134 92.3292 16.2363 93.285 16.8822C94.2667 17.5022 94.9771 18.3159 95.4163 19.3234C95.8813 20.3309 96.1138 21.4029 96.1138 22.5396C96.1138 22.9271 96.1008 23.2758 96.075 23.5858C96.075 23.87 96.0621 24.1154 96.0363 24.3221C96.0104 24.6579 95.7908 24.8258 95.3775 24.8258H86.1164ZM86.1164 22.1521H92.3938C92.4455 21.7129 92.3938 21.2609 92.2388 20.7959C92.1096 20.305 91.8255 19.8917 91.3863 19.5559C90.9472 19.2201 90.3272 19.0521 89.5263 19.0521C88.5447 19.0521 87.7568 19.3363 87.1626 19.9046C86.5943 20.4471 86.2455 21.1963 86.1164 22.1521Z" fill="black"/>
<path d="M71.4703 24.8258C71.5995 25.8591 72.0515 26.6471 72.8265 27.1895C73.6015 27.732 74.5832 28.0033 75.7715 28.0033C76.7531 28.0033 77.5669 27.9 78.2127 27.6933C78.8585 27.4866 79.5044 27.2025 80.1502 26.8408C80.3827 26.6858 80.5893 26.6083 80.7702 26.6083C81.0543 26.6083 81.1964 26.7891 81.1964 27.1508C81.1964 27.6933 80.9898 28.2745 80.5764 28.8945C80.1889 29.5145 79.5689 30.057 78.7164 30.522C77.864 30.9612 76.7273 31.1807 75.3065 31.1807C73.9115 31.1807 72.6328 30.8966 71.4703 30.3283C70.3336 29.7341 69.4295 28.8687 68.7578 27.732C68.0862 26.5696 67.7503 25.1487 67.7503 23.4696C67.7503 21.9971 68.0345 20.6925 68.6028 19.5559C69.197 18.4192 70.0236 17.528 71.0828 16.8822C72.1678 16.2363 73.4336 15.9134 74.8802 15.9134C76.4302 15.9134 77.6831 16.2363 78.6389 16.8822C79.6206 17.5022 80.331 18.3159 80.7702 19.3234C81.2352 20.3309 81.4677 21.4029 81.4677 22.5396C81.4677 22.9271 81.4547 23.2758 81.4289 23.5858C81.4289 23.87 81.416 24.1154 81.3902 24.3221C81.3643 24.6579 81.1447 24.8258 80.7314 24.8258H71.4703ZM71.4703 22.1521H77.7477C77.7994 21.7129 77.7477 21.2609 77.5927 20.7959C77.4635 20.305 77.1794 19.8917 76.7402 19.5559C76.3011 19.2201 75.6811 19.0521 74.8802 19.0521C73.8986 19.0521 73.1107 19.3363 72.5165 19.9046C71.9482 20.4471 71.5995 21.1963 71.4703 22.1521Z" fill="black"/>
<path d="M55.1828 23.3146V30.367C55.1828 30.6512 55.0407 30.7933 54.7565 30.7933H51.8115C51.5274 30.7933 51.3853 30.6512 51.3853 30.367L51.3852 9.8559C51.3852 9.5459 51.6292 9.24854 51.9133 9.24854L59.2515 9.24854C61.9639 9.24854 63.9531 9.89437 65.2189 11.186C66.4847 12.4518 67.1176 14.1181 67.1176 16.1847C67.1176 17.8122 66.7172 19.1943 65.9164 20.3309C65.1414 21.4676 64.0951 22.2942 62.7777 22.8109L67.2726 30.367C67.3243 30.4704 67.3243 30.5737 67.2726 30.677C67.2468 30.7545 67.1693 30.7933 67.0401 30.7933H63.7851C63.3718 30.7933 63.0747 30.6383 62.8939 30.3283L59.019 23.3146H55.1828ZM55.1828 19.8272H59.5615C60.5948 19.8272 61.486 19.5688 62.2352 19.0522C62.9843 18.5097 63.3589 17.5539 63.3589 16.1847C63.3589 15.0739 63.0102 14.2343 62.3127 13.666C61.6152 13.0977 60.711 12.8135 59.6002 12.8135H55.1828V19.8272Z" fill="black"/>
</svg>
