<svg width="28" height="28" viewBox="0 0 28 28" fill="none" xmlns="http://www.w3.org/2000/svg">
<rect width="28" height="28" fill="white"/>
<g clip-path="url(#clip0_310_857)">
<path d="M18.9658 10.7344C20.4686 11.8081 22.3097 12.4399 24.2981 12.4399V8.61561C23.9218 8.61576 23.5465 8.5765 23.1783 8.49847V11.5087C21.19 11.5087 19.3492 10.877 17.8461 9.80336V17.6076C17.8461 21.5118 14.6795 24.6764 10.7736 24.6764C9.31628 24.6764 7.96166 24.2361 6.83643 23.4808C8.12072 24.7933 9.91176 25.6075 11.8932 25.6075C15.7993 25.6075 18.966 22.4429 18.966 18.5386V10.7344H18.9658ZM20.3473 6.87615C19.5792 6.03752 19.0749 4.95373 18.9658 3.75552V3.26367H17.9046C18.1718 4.78653 19.083 6.08757 20.3473 6.87615ZM9.30686 20.485C8.87772 19.9227 8.64576 19.2347 8.64685 18.5274C8.64685 16.7418 10.0952 15.294 11.8821 15.294C12.2151 15.2938 12.5461 15.3449 12.8635 15.4455V11.5357C12.4926 11.485 12.1183 11.4633 11.7441 11.4713V14.5144C11.4266 14.4138 11.0954 14.3628 10.7623 14.363C8.97545 14.363 7.52717 15.8106 7.52717 17.5965C7.52717 18.8592 8.25107 19.9524 9.30686 20.485Z" fill="#FF004F"/>
<path d="M17.8457 9.80328C19.349 10.8769 21.1897 11.5086 23.178 11.5086V8.49838C22.0681 8.26207 21.0856 7.68244 20.3469 6.87615C19.0825 6.08749 18.1714 4.78645 17.9043 3.26367H15.117V18.5384C15.1106 20.3191 13.6647 21.761 11.8817 21.761C10.831 21.761 9.89753 21.2604 9.30639 20.4849C8.25076 19.9524 7.52678 18.8591 7.52678 17.5965C7.52678 15.8109 8.97506 14.3631 10.7619 14.3631C11.1043 14.3631 11.4342 14.4164 11.7438 14.5145V11.4714C7.90647 11.5506 4.82043 14.6844 4.82043 18.5385C4.82043 20.4624 5.58891 22.2066 6.83619 23.481C7.96142 24.2361 9.31596 24.6766 10.7734 24.6766C14.6793 24.6766 17.8458 21.5117 17.8458 17.6076L17.8457 9.80328Z" fill="black"/>
<path d="M23.1782 8.49864V7.68487C22.1774 7.68632 21.1963 7.40619 20.3472 6.87649C21.0988 7.69896 22.0886 8.26614 23.1782 8.4988M17.9045 3.26393C17.879 3.11842 17.8595 2.97195 17.8459 2.82486V2.33301H13.9972V17.6079C13.9911 19.3885 12.5452 20.8303 10.7621 20.8303C10.2566 20.8311 9.75797 20.7129 9.30656 20.4854C9.8977 21.2608 10.8312 21.7612 11.8818 21.7612C13.6648 21.7612 15.1108 20.3195 15.1171 18.5388V3.26401L17.9045 3.26393ZM11.7442 11.4716V10.6052C11.4226 10.5612 11.0983 10.5393 10.7737 10.5393C6.86742 10.5393 3.70093 13.7041 3.70093 17.6079C3.70093 20.0554 4.9454 22.2124 6.83653 23.4811C5.58924 22.2068 4.82077 20.4626 4.82077 18.5387C4.82077 14.6847 7.90672 11.5509 11.7442 11.4716Z" fill="#00F2EA"/>
</g>
<defs>
<clipPath id="clip0_310_857">
<rect width="20.5977" height="23.3333" fill="white" transform="translate(3.70093 2.33301)"/>
</clipPath>
</defs>
</svg>
