<svg width="156" height="45" viewBox="0 0 156 45" fill="none" xmlns="http://www.w3.org/2000/svg">
<rect y="0.5" width="43.5137" height="43.5137" rx="21.7569" fill="#FA18D0"/>
<path d="M21.6299 15.259C21.6299 16.2428 20.8324 17.0403 19.8486 17.0403H16.0313C15.0475 17.0403 14.25 17.8378 14.25 18.8216V31.2903C14.25 32.2741 15.0475 33.0715 16.0313 33.0715H20.3574C21.3412 33.0715 22.1387 32.274 22.1387 31.2903V21.3665C22.1387 20.3827 22.9362 19.5852 23.9199 19.5852H27.7373C28.7211 19.5852 29.5186 18.7877 29.5186 17.804V13.4778C29.5186 12.494 28.7211 11.6965 27.7373 11.6965H23.4111C22.4274 11.6965 21.6299 12.494 21.6299 13.4778V15.259Z" fill="white"/>
<path d="M146.692 32.6732L141.328 17.741C141.301 17.6343 141.301 17.5275 141.328 17.4208C141.381 17.314 141.461 17.2606 141.568 17.2606H142.409C143.503 17.2606 144.304 17.4875 144.811 17.9412C145.345 18.3949 145.838 19.2489 146.292 20.5033L148.774 27.9493L152.137 17.7811C152.297 17.4341 152.51 17.2606 152.777 17.2606H155.74C155.873 17.2606 155.953 17.314 155.98 17.4208C156.007 17.5275 156.007 17.6343 155.98 17.741L150.776 32.3529C150.322 33.6607 149.828 34.8216 149.295 35.8358C148.787 36.8766 148.16 37.6906 147.413 38.2778C146.666 38.8649 145.718 39.1585 144.571 39.1585C143.717 39.1585 142.996 38.9717 142.409 38.598C141.822 38.2511 141.381 37.7974 141.088 37.2369C140.794 36.6764 140.647 36.1293 140.647 35.5956C140.647 35.4088 140.687 35.2353 140.768 35.0751C140.848 34.915 140.968 34.835 141.128 34.835C141.181 34.835 141.235 34.8483 141.288 34.875C141.368 34.9284 141.435 34.9817 141.488 35.0351C142.209 35.5689 142.929 35.8358 143.65 35.8358C144.397 35.8358 144.984 35.5956 145.411 35.1152C145.838 34.6615 146.265 33.8475 146.692 32.6732Z" fill="white"/>
<path d="M136.966 30.4314C136.432 31.152 135.752 31.7124 134.924 32.1127C134.097 32.4864 133.216 32.6732 132.282 32.6732C130.788 32.6732 129.52 32.3129 128.479 31.5923C127.465 30.8717 126.691 29.9109 126.157 28.71C125.65 27.509 125.396 26.1879 125.396 24.7467C125.396 23.2522 125.677 21.9178 126.237 20.7435C126.798 19.5425 127.598 18.5951 128.639 17.9012C129.707 17.2073 130.948 16.8603 132.362 16.8603C133.536 16.8603 134.524 17.0738 135.325 17.5008C136.152 17.9278 136.806 18.4349 137.286 19.0221C137.5 18.4082 137.847 17.9679 138.327 17.701C138.834 17.4074 139.435 17.2606 140.128 17.2606H140.329C140.622 17.2606 140.769 17.4208 140.769 17.741V31.8725C140.769 32.1661 140.622 32.3129 140.329 32.3129H137.366C137.099 32.3129 136.966 32.1661 136.966 31.8725V30.4314ZM133.123 29.0703C133.63 29.0703 134.177 28.9635 134.764 28.75C135.378 28.5098 135.898 28.0828 136.325 27.469C136.752 26.8551 136.966 25.9477 136.966 24.7467C136.966 23.5458 136.752 22.6517 136.325 22.0646C135.898 21.4507 135.391 21.0504 134.804 20.8636C134.217 20.6501 133.67 20.5433 133.163 20.5433C132.629 20.5433 132.055 20.6634 131.441 20.9036C130.854 21.1438 130.347 21.5708 129.92 22.1847C129.52 22.7985 129.32 23.6525 129.32 24.7467C129.32 25.8943 129.533 26.7884 129.96 27.4289C130.414 28.0428 130.934 28.4698 131.521 28.71C132.109 28.9502 132.642 29.0703 133.123 29.0703Z" fill="white"/>
<path d="M112.829 30.5515V38.2778C112.829 38.5713 112.696 38.7181 112.429 38.7181H109.427C109.187 38.7181 109.066 38.5713 109.066 38.2778V17.741C109.066 17.4208 109.187 17.2606 109.427 17.2606H109.627C110.428 17.2606 111.068 17.4341 111.548 17.7811C112.056 18.128 112.402 18.6084 112.589 19.2222C112.99 18.6084 113.59 18.0746 114.391 17.6209C115.191 17.1672 116.166 16.9404 117.313 16.9404C118.861 16.9404 120.155 17.2873 121.196 17.9812C122.237 18.6484 123.024 19.5692 123.558 20.7435C124.119 21.9178 124.399 23.2522 124.399 24.7467C124.399 26.1879 124.132 27.509 123.598 28.71C123.091 29.9109 122.331 30.8717 121.316 31.5923C120.302 32.3129 119.048 32.6732 117.553 32.6732C116.566 32.6732 115.658 32.4997 114.831 32.1528C114.03 31.7791 113.363 31.2454 112.829 30.5515ZM116.713 29.0703C117.193 29.0703 117.713 28.9502 118.274 28.71C118.861 28.4698 119.368 28.0428 119.795 27.4289C120.222 26.7884 120.436 25.8943 120.436 24.7467C120.436 23.6258 120.222 22.7718 119.795 22.1846C119.395 21.5708 118.901 21.1438 118.314 20.9036C117.727 20.6634 117.166 20.5433 116.633 20.5433C116.152 20.5433 115.618 20.6501 115.031 20.8636C114.444 21.0504 113.924 21.4507 113.47 22.0645C113.043 22.6517 112.829 23.5458 112.829 24.7467C112.829 25.921 113.043 26.8284 113.47 27.469C113.924 28.0828 114.457 28.5098 115.071 28.75C115.685 28.9635 116.232 29.0703 116.713 29.0703Z" fill="white"/>
<path d="M107.942 28.4698C107.996 28.4431 108.049 28.4031 108.102 28.3497C108.182 28.2963 108.262 28.2696 108.343 28.2696C108.503 28.2696 108.609 28.3363 108.663 28.4698C108.743 28.5765 108.783 28.6966 108.783 28.8301C108.783 29.3638 108.663 29.9376 108.423 30.5515C108.182 31.1386 107.782 31.6323 107.222 32.0327C106.661 32.433 105.887 32.6332 104.9 32.6332C103.645 32.6332 102.645 32.2195 101.897 31.3922C101.177 30.5648 100.816 29.2838 100.816 27.549V10.5352C100.816 10.2149 100.95 10.0548 101.217 10.0548H101.417C102.458 10.0548 103.258 10.3217 103.819 10.8554C104.379 11.3625 104.66 12.2165 104.66 13.4175V27.1887C104.66 28.5765 105.153 29.2704 106.141 29.2704C106.541 29.2704 106.875 29.2037 107.142 29.0703C107.408 28.9368 107.675 28.7367 107.942 28.4698Z" fill="white"/>
<path d="M88.9681 26.1479C89.1016 27.2154 89.5686 28.0294 90.3693 28.5899C91.1699 29.1503 92.1841 29.4306 93.4117 29.4306C94.4259 29.4306 95.2666 29.3238 95.9338 29.1103C96.601 28.8968 97.2682 28.6032 97.9354 28.2296C98.1756 28.0694 98.3891 27.9894 98.576 27.9894C98.8695 27.9894 99.0163 28.1762 99.0163 28.5498C99.0163 29.1103 98.8028 29.7108 98.3758 30.3513C97.9755 30.9918 97.3349 31.5523 96.4542 32.0327C95.5735 32.4864 94.3992 32.7132 92.9314 32.7132C91.4902 32.7132 90.1691 32.4197 88.9681 31.8325C87.7938 31.2187 86.8597 30.3246 86.1658 29.1503C85.472 27.9493 85.125 26.4815 85.125 24.7467C85.125 23.2255 85.4186 21.8777 86.0057 20.7034C86.6196 19.5292 87.4736 18.6084 88.5678 17.9412C89.6887 17.274 90.9965 16.9404 92.491 16.9404C94.0923 16.9404 95.3867 17.274 96.3742 17.9412C97.3883 18.5817 98.1223 19.4224 98.576 20.4632C99.0563 21.5041 99.2965 22.6117 99.2965 23.786C99.2965 24.1863 99.2832 24.5466 99.2565 24.8668C99.2565 25.1604 99.2432 25.4139 99.2165 25.6275C99.1898 25.9744 98.9629 26.1479 98.5359 26.1479H88.9681ZM88.9681 23.3856H95.4534C95.5068 22.9319 95.4534 22.4649 95.2933 21.9845C95.1598 21.4774 94.8663 21.0504 94.4126 20.7034C93.9589 20.3565 93.3183 20.183 92.491 20.183C91.4768 20.183 90.6628 20.4766 90.049 21.0637C89.4619 21.6242 89.1016 22.3982 88.9681 23.3856Z" fill="white"/>
<path d="M73.8373 26.1479C73.9707 27.2154 74.4378 28.0294 75.2384 28.5899C76.0391 29.1503 77.0532 29.4306 78.2809 29.4306C79.2951 29.4306 80.1357 29.3238 80.8029 29.1103C81.4702 28.8968 82.1374 28.6032 82.8046 28.2296C83.0448 28.0694 83.2583 27.9894 83.4451 27.9894C83.7387 27.9894 83.8855 28.1762 83.8855 28.5498C83.8855 29.1103 83.6719 29.7108 83.2449 30.3513C82.8446 30.9918 82.2041 31.5523 81.3234 32.0327C80.4427 32.4864 79.2684 32.7132 77.8005 32.7132C76.3593 32.7132 75.0382 32.4197 73.8373 31.8325C72.663 31.2187 71.7289 30.3246 71.035 29.1503C70.3411 27.9493 69.9941 26.4815 69.9941 24.7467C69.9941 23.2255 70.2877 21.8777 70.8749 20.7034C71.4887 19.5292 72.3427 18.6084 73.4369 17.9412C74.5579 17.274 75.8656 16.9404 77.3601 16.9404C78.9614 16.9404 80.2558 17.274 81.2433 17.9412C82.2575 18.5817 82.9914 19.4224 83.4451 20.4632C83.9255 21.5041 84.1657 22.6117 84.1657 23.786C84.1657 24.1863 84.1523 24.5466 84.1257 24.8668C84.1257 25.1604 84.1123 25.4139 84.0856 25.6275C84.0589 25.9744 83.8321 26.1479 83.4051 26.1479H73.8373ZM73.8373 23.3856H80.3226C80.3759 22.9319 80.3226 22.4649 80.1624 21.9845C80.029 21.4774 79.7354 21.0504 79.2817 20.7034C78.828 20.3565 78.1875 20.183 77.3601 20.183C76.346 20.183 75.532 20.4766 74.9182 21.0637C74.331 21.6242 73.9707 22.3982 73.8373 23.3856Z" fill="white"/>
<path d="M57.0102 24.5866V31.8726C57.0102 32.1661 56.8634 32.3129 56.5698 32.3129H53.5274C53.2338 32.3129 53.087 32.1661 53.087 31.8726L53.0869 10.6823C53.0869 10.362 53.339 10.0548 53.6325 10.0548L61.2136 10.0548C64.0159 10.0548 66.0709 10.722 67.3786 12.0564C68.6864 13.3642 69.3402 15.0856 69.3402 17.2206C69.3402 18.902 68.9266 20.3298 68.0992 21.5041C67.2986 22.6784 66.2177 23.5324 64.8566 24.0662L69.5004 31.8726C69.5538 31.9793 69.5538 32.0861 69.5004 32.1928C69.4737 32.2729 69.3936 32.3129 69.2602 32.3129H65.8974C65.4704 32.3129 65.1635 32.1528 64.9767 31.8325L60.9734 24.5866H57.0102ZM57.0102 20.9837H61.5339C62.6014 20.9837 63.5222 20.7168 64.2961 20.183C65.0701 19.6226 65.4571 18.6351 65.4571 17.2206C65.4571 16.073 65.0968 15.2057 64.3762 14.6185C63.6556 14.0314 62.7215 13.7378 61.5739 13.7378H57.0102V20.9837Z" fill="white"/>
</svg>
